<svg width="24" height="24" viewBox="0 0 24 24" fill="none" xmlns="http://www.w3.org/2000/svg">
<path d="M8.85344 2.18164H18.6886C18.9574 2.18164 19.1734 2.39764 19.1734 2.66644V20.8968C19.1734 21.1656 18.9574 21.3816 18.6886 21.3816H5.25824C4.98944 21.3816 4.77344 21.1656 4.77344 20.8968V6.26164L8.85344 2.18164Z" fill="white"/>
<path d="M8.85344 2.18164H18.6886C18.9574 2.18164 19.1734 2.39764 19.1734 2.66644V20.8968C19.1734 21.1656 18.9574 21.3816 18.6886 21.3816H5.25824C4.98944 21.3816 4.77344 21.1656 4.77344 20.8968V6.26164L8.85344 2.18164Z" fill="white"/>
<path d="M8.85344 2.28955H18.6886C18.9574 2.28955 19.1734 2.50555 19.1734 2.77435V21.0047C19.1734 21.2735 18.9574 21.4895 18.6886 21.4895H5.25824C4.98944 21.4895 4.77344 21.2735 4.77344 21.0047V6.36955L8.85344 2.28955Z" stroke="black" stroke-miterlimit="10" stroke-linecap="round"/>
<path d="M5.01367 6.35059H8.59447C8.72647 6.35059 8.83447 6.24259 8.83447 6.11059V2.52979" stroke="black" stroke-miterlimit="10" stroke-linecap="round"/>
<path d="M8.00684 17.2148V18.4484C8.00684 18.5588 8.09564 18.6476 8.20604 18.6476H15.7444C15.8548 18.6476 15.9436 18.5588 15.9436 18.4484V17.2148" stroke="black" stroke-miterlimit="10" stroke-linecap="round"/>
<path d="M11.9738 16.435C14.6871 16.435 16.8866 14.2354 16.8866 11.5222C16.8866 8.80891 14.6871 6.60938 11.9738 6.60938C9.26057 6.60938 7.06104 8.80891 7.06104 11.5222C7.06104 14.2354 9.26057 16.435 11.9738 16.435Z" fill="#0079C8"/>
<path d="M11.9736 8.72363V13.9748" stroke="white" stroke-miterlimit="10" stroke-linecap="round"/>
<path d="M13.8819 12.4917L11.9739 14.1693L10.0635 12.4917" stroke="white" stroke-miterlimit="10" stroke-linecap="round"/>
</svg>
