<svg width="24" height="24" viewBox="0 0 24 24" fill="none" xmlns="http://www.w3.org/2000/svg">
<path d="M17.3233 2.16016H3.31692C3.20823 2.16016 3.12012 2.24827 3.12012 2.35696V21.6434C3.12012 21.752 3.20823 21.8402 3.31692 21.8402H17.3233C17.432 21.8402 17.5201 21.752 17.5201 21.6434V2.35696C17.5201 2.24827 17.432 2.16016 17.3233 2.16016Z" fill="white"/>
<path d="M7.2002 2.40039H17.0354C17.3042 2.40039 17.5202 2.61639 17.5202 2.88519V9.67239" stroke="black" stroke-miterlimit="10" stroke-linecap="round"/>
<path d="M3.12012 9.12061V21.1158C3.12012 21.3846 3.33612 21.6006 3.60492 21.6006H11.8249" stroke="black" stroke-miterlimit="10" stroke-linecap="round"/>
<path d="M13.4401 2.40039H3.60492C3.33612 2.40039 3.12012 2.61639 3.12012 2.88519V6.00039" stroke="black" stroke-miterlimit="10" stroke-linecap="round"/>
<path d="M17.5202 13.0923V21.1155C17.5202 21.3843 17.3042 21.6003 17.0354 21.6003H8.81543" stroke="black" stroke-miterlimit="10" stroke-linecap="round"/>
<path d="M5.01855 7.79053H12.5762" stroke="black" stroke-miterlimit="10" stroke-linecap="round"/>
<path d="M5.01855 9.62402H12.5762" stroke="black" stroke-miterlimit="10" stroke-linecap="round"/>
<path d="M5.01855 11.4575H10.3346" stroke="black" stroke-miterlimit="10" stroke-linecap="round"/>
<path d="M5.01855 13.2915H10.3346" stroke="black" stroke-miterlimit="10" stroke-linecap="round"/>
<path d="M17.3927 17.9738V18.5954H17.0327C16.5647 18.5954 16.2575 18.269 16.0535 17.9594L15.0071 20.1434C14.9207 20.3234 14.7023 20.3978 14.5223 20.3114C14.4071 20.2562 14.3303 20.141 14.3183 20.0138L13.6655 12.5834L12.2639 18.7154C12.2231 18.881 12.0575 18.9842 11.8895 18.9458C11.8031 18.9242 11.7311 18.869 11.6879 18.7922L11.0015 17.5298C10.4999 18.2162 9.69592 18.6146 8.84392 18.5978H3.27832L3.35272 17.9762H8.84392C10.0103 17.9762 10.5071 17.1746 10.6943 16.8722C10.7327 16.793 10.7879 16.7258 10.8575 16.6754C10.9295 16.6274 11.0207 16.613 11.1047 16.6322C11.1887 16.6538 11.2607 16.709 11.3015 16.7858L11.8463 17.7938L13.3607 11.2586C13.4135 11.045 13.6271 10.913 13.8407 10.9634C14.0063 11.0042 14.1263 11.1434 14.1431 11.3114L14.8511 19.1234L15.7679 17.1626C15.8135 17.0762 15.8975 17.0138 15.9935 16.9994C16.0895 16.9826 16.1879 17.0138 16.2599 17.081C16.3271 17.1554 16.3823 17.2394 16.4231 17.3282C16.5383 17.5514 16.7495 17.9666 17.0351 17.9666L17.3903 17.9738H17.3927Z" fill="#0079C8"/>
<path d="M7.2002 2.40039H17.0354C17.3042 2.40039 17.5202 2.61639 17.5202 2.88519V9.67239" stroke="black" stroke-miterlimit="10" stroke-linecap="round"/>
<path d="M3.12012 9.12061V21.1158C3.12012 21.3846 3.33612 21.6006 3.60492 21.6006H11.8249" stroke="black" stroke-miterlimit="10" stroke-linecap="round"/>
<path d="M13.4401 2.40039H3.60492C3.33612 2.40039 3.12012 2.61639 3.12012 2.88519V6.00039" stroke="black" stroke-miterlimit="10" stroke-linecap="round"/>
<path d="M17.5202 13.0923V21.1155C17.5202 21.3843 17.3042 21.6003 17.0354 21.6003H8.81543" stroke="black" stroke-miterlimit="10" stroke-linecap="round"/>
<path d="M20.9835 14.4004L20.0067 12.4156C19.8819 12.1588 19.5723 12.0532 19.3155 12.1804C19.0587 12.3076 18.9531 12.6148 19.0803 12.8716L20.0571 14.8564C20.1819 15.1132 20.4915 15.2188 20.7483 15.0916C21.0051 14.9644 21.1107 14.6572 20.9835 14.4004Z" fill="white" stroke="black" stroke-width="0.5" stroke-miterlimit="10" stroke-linecap="round"/>
<path d="M16.829 11.9856C15.473 11.5248 14.7458 10.0464 15.209 8.69035C15.6698 7.33675 17.1482 6.60955 18.5042 7.07275C19.8602 7.53595 20.5874 9.01195 20.1242 10.368C19.661 11.724 18.185 12.4488 16.829 11.9856Z" fill="white"/>
<path d="M15.7683 11.2992C15.1371 10.6224 14.8899 9.62635 15.2091 8.69035C15.6699 7.33675 17.1483 6.60955 18.5043 7.07275C19.8603 7.53595 20.5875 9.01195 20.1243 10.368C19.6611 11.724 18.1851 12.4488 16.8291 11.9856" stroke="black" stroke-width="0.5" stroke-miterlimit="10" stroke-linecap="round"/>
<path d="M19.1863 10.0486C19.4728 9.20805 19.0236 8.29436 18.183 8.00788C17.3424 7.72139 16.4288 8.17058 16.1423 9.01117C15.8558 9.85177 16.305 10.7654 17.1456 11.0519C17.9862 11.3384 18.8998 10.8892 19.1863 10.0486Z" fill="#0079C8" stroke="black" stroke-width="0.5" stroke-miterlimit="10"/>
</svg>
