<svg width="24" height="24" viewBox="0 0 24 24" fill="none" xmlns="http://www.w3.org/2000/svg">
<path d="M17.3233 2.16016H3.31692C3.20823 2.16016 3.12012 2.24827 3.12012 2.35696V21.6434C3.12012 21.752 3.20823 21.8402 3.31692 21.8402H17.3233C17.432 21.8402 17.5201 21.752 17.5201 21.6434V2.35696C17.5201 2.24827 17.432 2.16016 17.3233 2.16016Z" fill="white"/>
<path d="M7.2002 2.40039H17.0354C17.3042 2.40039 17.5202 2.61639 17.5202 2.88519V9.67239" stroke="black" stroke-miterlimit="10" stroke-linecap="round"/>
<path d="M3.12012 9.12061V21.1158C3.12012 21.3846 3.33612 21.6006 3.60492 21.6006H11.8249" stroke="black" stroke-miterlimit="10" stroke-linecap="round"/>
<path d="M13.4401 2.40039H3.60492C3.33612 2.40039 3.12012 2.61639 3.12012 2.88519V6.00039" stroke="black" stroke-miterlimit="10" stroke-linecap="round"/>
<path d="M17.5202 13.0923V21.1155C17.5202 21.3843 17.3042 21.6003 17.0354 21.6003H8.81543" stroke="black" stroke-miterlimit="10" stroke-linecap="round"/>
<path d="M5.01855 7.79053H12.5762" stroke="black" stroke-miterlimit="10" stroke-linecap="round"/>
<path d="M5.01855 9.62402H12.5762" stroke="black" stroke-miterlimit="10" stroke-linecap="round"/>
<path d="M5.01855 11.4575H10.3346" stroke="black" stroke-miterlimit="10" stroke-linecap="round"/>
<path d="M5.01855 13.2915H10.3346" stroke="black" stroke-miterlimit="10" stroke-linecap="round"/>
<path d="M17.3927 17.9738V18.5954H17.0327C16.5647 18.5954 16.2575 18.269 16.0535 17.9594L15.0071 20.1434C14.9207 20.3234 14.7023 20.3978 14.5223 20.3114C14.4071 20.2562 14.3303 20.141 14.3183 20.0138L13.6655 12.5834L12.2639 18.7154C12.2231 18.881 12.0575 18.9842 11.8895 18.9458C11.8031 18.9242 11.7311 18.869 11.6879 18.7922L11.0015 17.5298C10.4999 18.2162 9.69592 18.6146 8.84392 18.5978H3.27832L3.35272 17.9762H8.84392C10.0103 17.9762 10.5071 17.1746 10.6943 16.8722C10.7327 16.793 10.7879 16.7258 10.8575 16.6754C10.9295 16.6274 11.0207 16.613 11.1047 16.6322C11.1887 16.6538 11.2607 16.709 11.3015 16.7858L11.8463 17.7938L13.3607 11.2586C13.4135 11.045 13.6271 10.913 13.8407 10.9634C14.0063 11.0042 14.1263 11.1434 14.1431 11.3114L14.8511 19.1234L15.7679 17.1626C15.8135 17.0762 15.8975 17.0138 15.9935 16.9994C16.0895 16.9826 16.1879 17.0138 16.2599 17.081C16.3271 17.1554 16.3823 17.2394 16.4231 17.3282C16.5383 17.5514 16.7495 17.9666 17.0351 17.9666L17.3903 17.9738H17.3927Z" fill="#0079C8"/>
<path d="M7.2002 2.40039H17.0354C17.3042 2.40039 17.5202 2.61639 17.5202 2.88519V9.67239" stroke="black" stroke-miterlimit="10" stroke-linecap="round"/>
<path d="M3.12012 9.12061V21.1158C3.12012 21.3846 3.33612 21.6006 3.60492 21.6006H11.8249" stroke="black" stroke-miterlimit="10" stroke-linecap="round"/>
<path d="M13.4401 2.40039H3.60492C3.33612 2.40039 3.12012 2.61639 3.12012 2.88519V6.00039" stroke="black" stroke-miterlimit="10" stroke-linecap="round"/>
<path d="M17.5202 13.0923V21.1155C17.5202 21.3843 17.3042 21.6003 17.0354 21.6003H8.81543" stroke="black" stroke-miterlimit="10" stroke-linecap="round"/>
<path d="M17.5728 11.1577C19.4324 11.1577 20.94 9.65019 20.94 7.79054C20.94 5.93089 19.4324 4.42334 17.5728 4.42334C15.7131 4.42334 14.2056 5.93089 14.2056 7.79054C14.2056 9.65019 15.7131 11.1577 17.5728 11.1577Z" fill="#0079C8" stroke="black" stroke-miterlimit="10" stroke-linecap="round"/>
<path d="M17.4026 7.16406L17.0498 7.80006L17.273 7.39926L17.4026 7.16406Z" fill="#0079C8" stroke="black" stroke-width="0.5" stroke-miterlimit="10"/>
<path d="M17.9331 6.20175C18.0699 5.95455 18.8979 6.41055 18.7611 6.65775L19.0203 6.18735C19.1571 5.94015 18.3291 5.48175 18.1923 5.73135L17.9331 6.20175Z" fill="#F1EFEB" stroke="black" stroke-width="0.5" stroke-miterlimit="10"/>
<path d="M17.0497 7.80029L16.7905 8.27069L17.0497 7.80029Z" fill="white" stroke="black" stroke-width="0.5" stroke-miterlimit="10"/>
<path d="M18.5497 7.04156L18.7609 6.65756C18.8977 6.41036 18.0697 5.95196 17.9329 6.20156L17.7217 6.58556C17.8585 6.33836 18.6865 6.79436 18.5497 7.04156Z" fill="#0079C8" stroke="black" stroke-width="0.5" stroke-miterlimit="10"/>
<path d="M17.273 7.39941L17.0498 7.80021L17.273 7.39941Z" fill="white" stroke="black" stroke-width="0.5" stroke-miterlimit="10"/>
<path d="M17.7527 6.52832L17.4023 7.16432L17.7527 6.52832Z" fill="#0079C8" stroke="black" stroke-width="0.5" stroke-miterlimit="10"/>
<path d="M17.7529 6.52832L17.4025 7.16432L17.2729 7.39952L17.7529 6.52832Z" fill="#0079C8" stroke="black" stroke-width="0.5" stroke-miterlimit="10"/>
<path d="M17.7529 6.52818L17.2705 7.39938L17.0497 7.80018L16.7905 8.27058L16.5793 8.65458C16.4761 8.84178 16.5313 9.06978 16.7041 9.16578L16.9105 9.27858C17.0809 9.37218 17.3041 9.29778 17.4073 9.11058L17.6185 8.72658L17.8777 8.25618L18.5809 6.98178C18.7177 6.73458 17.8897 6.27618 17.7529 6.52578V6.52818Z" fill="#F1EFEB" stroke="black" stroke-width="0.5" stroke-miterlimit="10"/>
<path d="M17.2248 9.34314L16.476 9.98394L16.356 9.92154L16.4952 8.93994L17.2248 9.34314Z" fill="#F1EFEB" stroke="black" stroke-width="0.5" stroke-miterlimit="10"/>
</svg>
