<svg width="24" height="24" viewBox="0 0 24 24" fill="none" xmlns="http://www.w3.org/2000/svg">
<path d="M2.87988 7.92016V21.3602C2.87988 21.6242 3.09588 21.8402 3.35988 21.8402H16.7999C17.0639 21.8402 17.2799 21.6242 17.2799 21.3602V6.48016L12.9599 2.16016H3.35988C3.09588 2.16016 2.87988 2.37616 2.87988 2.64016V5.04016" fill="white"/>
<path d="M2.87988 7.92016V21.3602C2.87988 21.6242 3.09588 21.8402 3.35988 21.8402H16.7999C17.0639 21.8402 17.2799 21.6242 17.2799 21.3602V6.48016L12.9599 2.16016H3.35988C3.09588 2.16016 2.87988 2.37616 2.87988 2.64016V5.04016" stroke="black" stroke-linecap="round" stroke-linejoin="round"/>
<path d="M5.27979 4.56006H10.5598" stroke="black" stroke-linecap="round" stroke-linejoin="round"/>
<path d="M5.27979 9.36035H14.8798" stroke="black" stroke-linecap="round" stroke-linejoin="round"/>
<path d="M5.27979 11.2803H12.9598" stroke="black" stroke-linecap="round" stroke-linejoin="round"/>
<path d="M5.27979 13.2002H11.2798" stroke="black" stroke-linecap="round" stroke-linejoin="round"/>
<path d="M5.27979 15.1201H9.59979" stroke="black" stroke-linecap="round" stroke-linejoin="round"/>
<path d="M13.44 6.48016H17.28L12.96 2.16016V6.00016C12.96 6.26416 13.176 6.48016 13.44 6.48016Z" fill="#F1EFEB" stroke="black" stroke-linecap="round" stroke-linejoin="round"/>
<path d="M14.28 13.3298C14.952 12.941 15.7296 12.7202 16.56 12.7202C19.0776 12.7202 21.12 14.7626 21.12 17.2802C21.12 19.7978 19.0776 21.8402 16.56 21.8402C14.0424 21.8402 12 19.7978 12 17.2802C12 16.3586 12.2736 15.5018 12.744 14.7842" fill="#F1EFEB"/>
<path d="M15.2256 12.9194C15.648 12.7898 16.0944 12.7202 16.56 12.7202C19.0776 12.7202 21.12 14.7626 21.12 17.2802C21.12 19.7978 19.0776 21.8402 16.56 21.8402C14.0424 21.8402 12 19.7978 12 17.2802C12 16.3586 12.2736 15.5018 12.744 14.7842" stroke="black" stroke-linecap="round" stroke-linejoin="round"/>
<path d="M15.703 13.5196L14.2798 13.33L15.1534 12.1924L15.703 13.5196Z" fill="black"/>
<path d="M16.5766 20.9739C18.5648 20.9739 20.1766 19.3622 20.1766 17.3739C20.1766 15.3857 18.5648 13.7739 16.5766 13.7739C14.5883 13.7739 12.9766 15.3857 12.9766 17.3739C12.9766 19.3622 14.5883 20.9739 16.5766 20.9739Z" fill="#0079C8"/>
<path d="M16.5769 20.2444C16.3993 20.2444 16.2529 20.1004 16.2529 19.9204V19.4188L16.1761 19.3996C16.0753 19.3732 15.9769 19.3396 15.8833 19.2988C15.4753 19.1284 15.1513 18.7924 14.9953 18.3796C14.9665 18.298 14.9713 18.2116 15.0073 18.1324C15.0457 18.0556 15.1105 17.9956 15.1921 17.9668C15.2281 17.9548 15.2641 17.9476 15.3001 17.9476C15.4369 17.9476 15.5593 18.034 15.6049 18.1636C15.7057 18.4132 15.9049 18.6124 16.1497 18.7108C16.3009 18.7804 16.4665 18.8188 16.6393 18.8188C16.7809 18.8188 16.9201 18.7948 17.0521 18.7444C17.2801 18.6508 17.4841 18.4348 17.4025 18.1828C17.3065 17.8972 17.0137 17.8012 16.5409 17.6716C16.0969 17.5492 15.5953 17.4124 15.3121 16.9588C15.0625 16.5724 15.0625 16.078 15.3169 15.694C15.5209 15.4108 15.8233 15.2212 16.1713 15.1612L16.2577 15.1468V14.638C16.2577 14.4604 16.4017 14.314 16.5817 14.314C16.7617 14.314 16.9057 14.458 16.9057 14.638V15.1372L16.9873 15.154C17.5369 15.2644 17.9881 15.6604 18.1681 16.1908C18.1921 16.2724 18.1825 16.3588 18.1417 16.4356C18.1009 16.51 18.0313 16.5652 17.9497 16.5892C17.9209 16.5988 17.8897 16.6012 17.8585 16.6012C17.7169 16.6012 17.5897 16.5052 17.5489 16.3684C17.4289 16.0612 17.1697 15.8452 16.8553 15.7804C16.7665 15.7636 16.6753 15.7564 16.5841 15.7564C16.2481 15.7564 15.9817 15.8644 15.8545 16.054C15.7465 16.2292 15.7537 16.4476 15.8665 16.6132C16.0153 16.8508 16.3561 16.9444 16.7185 17.0428C17.2321 17.1844 17.8129 17.3428 18.0217 17.974C18.1993 18.5164 17.8993 19.0876 17.3089 19.3324C17.2081 19.3732 17.1001 19.4068 16.9921 19.426L16.9081 19.4428V19.9156C16.9081 20.0932 16.7641 20.2396 16.5841 20.2396L16.5769 20.2444Z" fill="white"/>
</svg>
